<svg height="606" width="720" xmlns="http://www.w3.org/2000/svg">
<rect height="606" fill="#555" width="720"></rect>
<text fill="#7f7" font-family="Courier New" font-size="12" xml:space="preserve">
<tspan x="10" y="26">8 megabytes installed</tspan>
<tspan x="10" y="42"></tspan>
<tspan x="10" y="58">node_modules</tspan>
<tspan x="10" y="74">└─┬ gh-pages@0.12.0 </tspan>
<tspan x="10" y="90">  ├─┬ async@2.1.2 </tspan>
<tspan x="10" y="106">  │ └── lodash@4.17.4 </tspan>
<tspan x="10" y="122">  ├─┬ commander@2.9.0 </tspan>
<tspan x="10" y="138">  │ └── graceful-readlink@1.0.1 </tspan>
<tspan x="10" y="154">  ├─┬ globby@6.1.0 </tspan>
<tspan x="10" y="170">  │ ├─┬ array-union@1.0.2 </tspan>
<tspan x="10" y="186">  │ │ └── array-uniq@1.0.3 </tspan>
<tspan x="10" y="202">  │ ├─┬ glob@7.1.1 </tspan>
<tspan x="10" y="218">  │ │ ├── fs.realpath@1.0.0 </tspan>
<tspan x="10" y="234">  │ │ ├─┬ inflight@1.0.6 </tspan>
<tspan x="10" y="250">  │ │ │ └── wrappy@1.0.2 </tspan>
<tspan x="10" y="266">  │ │ ├── inherits@2.0.3 </tspan>
<tspan x="10" y="282">  │ │ ├─┬ minimatch@3.0.3 </tspan>
<tspan x="10" y="298">  │ │ │ └─┬ brace-expansion@1.1.7 </tspan>
<tspan x="10" y="314">  │ │ │   ├── balanced-match@0.4.2 </tspan>
<tspan x="10" y="330">  │ │ │   └── concat-map@0.0.1 </tspan>
<tspan x="10" y="346">  │ │ ├── once@1.4.0 </tspan>
<tspan x="10" y="362">  │ │ └── path-is-absolute@1.0.1 </tspan>
<tspan x="10" y="378">  │ ├── object-assign@4.1.1 </tspan>
<tspan x="10" y="394">  │ ├── pify@2.3.0 </tspan>
<tspan x="10" y="410">  │ └─┬ pinkie-promise@2.0.1 </tspan>
<tspan x="10" y="426">  │   └── pinkie@2.0.4 </tspan>
<tspan x="10" y="442">  ├── graceful-fs@4.1.10 </tspan>
<tspan x="10" y="458">  ├── q@1.4.1 </tspan>
<tspan x="10" y="474">  ├─┬ q-io@1.13.2 </tspan>
<tspan x="10" y="490">  │ ├─┬ collections@0.2.2 </tspan>
<tspan x="10" y="506">  │ │ └── weak-map@1.0.0 </tspan>
<tspan x="10" y="522">  │ ├── mime@1.3.4 </tspan>
<tspan x="10" y="538">  │ ├── mimeparse@0.1.4 </tspan>
<tspan x="10" y="554">  │ ├── qs@1.2.2 </tspan>
<tspan x="10" y="570">  │ └── url2@0.0.0 </tspan>
<tspan x="10" y="586">  └── rimraf@2.6.1</tspan>
</text>
</svg>
